<?xml version="1.0" standalone="no"?>
<!DOCTYPE svg PUBLIC "-//W3C//DTD SVG 20010904//EN"
 "http://www.w3.org/TR/2001/REC-SVG-20010904/DTD/svg10.dtd">
<svg version="1.0" xmlns="http://www.w3.org/2000/svg"
 width="1400.000000pt" height="1400.000000pt" viewBox="0 0 1400.000000 1400.000000"
 preserveAspectRatio="xMidYMid meet">
<metadata>
Created by potrace 1.11, written by Peter Selinger 2001-2013
</metadata>
<g transform="translate(0.000000,1400.000000) scale(0.100000,-0.100000)"
fill="#000000" stroke="none">
<path d="M6868 12516 c-27 -7 -48 -11 -48 -8 0 2 -7 -1 -15 -8 -8 -7 -15 -9
-15 -5 0 4 -6 2 -13 -4 -8 -6 -17 -8 -20 -4 -4 3 -7 1 -7 -5 0 -7 -3 -11 -7
-10 -12 4 -93 -35 -93 -44 0 -4 -6 -8 -13 -8 -8 0 -22 -9 -32 -20 -10 -11 -25
-20 -33 -20 -9 0 -13 -3 -10 -6 3 -3 -14 -24 -38 -46 -24 -22 -56 -60 -71 -84
-16 -24 -32 -44 -36 -44 -5 0 -5 -4 -2 -10 3 -5 1 -10 -4 -10 -6 0 -10 -3 -10
-7 1 -5 -4 -24 -12 -43 -7 -19 -12 -38 -11 -42 1 -5 -1 -8 -5 -8 -9 0 -73 71
-73 81 0 5 -4 9 -10 9 -5 0 -23 14 -38 30 -16 17 -34 30 -41 30 -6 0 -11 5
-11 10 0 6 -7 10 -15 10 -8 0 -15 5 -15 10 0 6 -7 10 -15 10 -8 0 -15 5 -15
10 0 6 -7 10 -15 10 -8 0 -24 5 -35 10 -11 6 -29 15 -40 20 -11 6 -29 10 -40
10 -11 0 -20 4 -20 8 0 4 -10 9 -22 10 -74 7 -103 10 -105 12 -4 3 -42 3 -48
0 -14 -7 -31 -5 -42 3 -7 5 -18 5 -25 1 -7 -5 -19 -9 -27 -11 -44 -6 -122 -29
-161 -46 -25 -11 -47 -21 -50 -21 -10 -3 -65 -41 -72 -51 -4 -5 -8 -7 -8 -2 0
4 -8 -1 -18 -10 -10 -10 -28 -24 -40 -32 -11 -8 -19 -18 -16 -23 3 -4 -1 -8
-8 -8 -14 0 -110 -128 -107 -144 0 -5 -4 -12 -11 -16 -6 -4 -12 -13 -14 -21
-1 -8 -7 -23 -12 -34 -6 -11 -16 -41 -23 -66 -8 -27 -18 -46 -27 -46 -8 0 -12
3 -9 5 5 5 -57 46 -64 43 -2 -2 -7 1 -10 6 -10 14 -97 52 -136 60 -10 2 -22 7
-25 11 -3 4 -16 8 -30 9 -61 4 -134 14 -142 19 -4 3 -8 1 -8 -4 0 -5 -21 -9
-47 -9 -41 0 -98 -8 -98 -13 0 -1 -9 -3 -20 -5 -12 -2 -39 -12 -60 -21 -22
-10 -42 -18 -45 -19 -3 0 -15 -6 -27 -13 -13 -7 -23 -11 -23 -8 0 3 -12 -6
-26 -19 -15 -14 -31 -25 -35 -25 -13 0 -124 -108 -124 -120 0 -6 -4 -10 -9 -9
-9 0 -31 -33 -42 -63 -3 -10 -10 -18 -15 -18 -5 0 -8 -3 -7 -7 1 -5 -8 -30
-20 -56 -12 -27 -22 -54 -22 -61 0 -7 -3 -16 -7 -20 -7 -7 -11 -24 -15 -68 -1
-16 -6 -28 -10 -28 -5 0 -4 -9 2 -19 5 -11 6 -22 2 -25 -7 -4 -9 -101 -2 -101
6 0 5 -47 -2 -51 -4 -3 -8 0 -8 7 0 7 -3 10 -6 7 -3 -4 -17 0 -31 7 -15 8 -30
12 -35 9 -4 -3 -8 -1 -8 4 0 10 -69 32 -107 35 -13 1 -23 4 -23 7 0 3 -45 6
-100 6 -55 0 -100 -3 -100 -6 0 -3 -10 -6 -22 -7 -32 -1 -61 -7 -75 -16 -7 -5
-17 -5 -23 -2 -6 3 -10 2 -10 -4 0 -5 -10 -12 -22 -16 -36 -10 -128 -58 -128
-67 0 -4 -6 -8 -14 -8 -8 0 -17 -7 -20 -16 -4 -9 -9 -15 -12 -12 -5 6 -68 -56
-99 -98 -11 -15 -26 -33 -33 -41 -7 -7 -10 -13 -6 -13 4 0 0 -8 -9 -18 -14
-15 -47 -80 -53 -104 -1 -5 -2 -9 -4 -10 -1 -2 -3 -10 -5 -18 -2 -8 -10 -40
-18 -70 -18 -69 -14 -274 7 -308 3 -5 -1 -15 -9 -22 -12 -10 -15 -10 -15 1 0
11 -2 11 -10 -1 -5 -8 -10 -10 -10 -4 0 6 -17 10 -37 9 -21 -1 -48 2 -60 6
-13 5 -23 5 -23 1 0 -4 -15 -9 -33 -10 -32 -2 -55 -6 -99 -18 -13 -3 -29 -6
-35 -6 -7 -1 -13 -5 -13 -10 0 -4 -6 -8 -13 -8 -54 0 -257 -144 -257 -182 0
-6 -3 -8 -7 -5 -3 4 -18 -10 -31 -31 -14 -20 -28 -39 -31 -42 -15 -12 -60
-113 -55 -121 3 -5 0 -9 -6 -9 -6 0 -9 -4 -5 -9 3 -5 1 -12 -5 -16 -6 -4 -8
-11 -5 -16 4 -5 2 -9 -2 -9 -5 0 -9 -8 -9 -17 -1 -10 -4 -36 -8 -58 -11 -62
-7 -228 7 -241 4 -4 7 -20 7 -36 0 -15 5 -28 11 -28 6 0 9 -6 6 -14 -3 -7 0
-19 6 -25 6 -6 8 -11 3 -11 -4 0 0 -7 8 -16 9 -8 14 -20 11 -25 -4 -5 -1 -9 4
-9 6 0 11 -6 11 -13 0 -7 9 -23 20 -34 15 -16 16 -22 6 -26 -8 -3 -19 0 -26 6
-9 8 -11 8 -7 1 5 -8 -5 -12 -26 -12 -43 0 -80 -7 -95 -16 -7 -4 -12 -5 -12
-1 0 3 -15 -1 -34 -9 -19 -8 -37 -12 -40 -8 -3 3 -6 -1 -6 -8 0 -7 -3 -10 -7
-7 -3 4 -13 1 -21 -6 -13 -10 -15 -9 -8 3 4 9 1 8 -7 -2 -8 -10 -19 -18 -26
-18 -6 0 -11 -6 -11 -12 0 -9 -4 -8 -10 2 -6 9 -10 10 -10 3 0 -6 -18 -23 -40
-36 -22 -13 -37 -27 -33 -30 6 -6 -11 -11 -29 -8 -5 0 -8 -3 -8 -8 0 -5 -18
-28 -40 -51 -39 -41 -115 -155 -115 -171 0 -4 -3 -11 -7 -15 -5 -4 -8 -16 -8
-26 0 -10 -4 -18 -10 -18 -5 0 -9 -3 -8 -7 1 -5 -4 -33 -11 -63 -18 -69 -18
-285 0 -307 1 -2 3 -7 4 -13 1 -5 4 -12 5 -15 1 -3 3 -8 5 -12 1 -5 5 -17 9
-28 4 -11 13 -33 19 -50 6 -16 13 -32 16 -35 4 -3 12 -17 20 -32 8 -15 23 -37
33 -48 10 -11 17 -20 14 -20 -3 0 8 -14 24 -30 33 -34 38 -45 16 -37 -8 3 -16
1 -18 -4 -2 -5 -13 -11 -26 -12 -12 0 -22 -5 -22 -9 0 -4 -9 -8 -20 -8 -11 0
-23 -6 -26 -14 -3 -8 -12 -12 -20 -9 -8 3 -14 0 -14 -5 0 -6 -8 -13 -19 -17
-46 -14 -210 -183 -194 -199 3 -3 1 -6 -5 -6 -12 0 -62 -93 -62 -116 0 -8 -5
-14 -11 -14 -5 0 -8 -4 -5 -9 3 -5 0 -24 -8 -42 -7 -19 -12 -42 -11 -51 2 -10
0 -18 -4 -18 -5 0 -6 -10 -4 -22 4 -22 2 -23 -80 -24 -49 -1 -93 -7 -108 -15
-13 -7 -27 -13 -31 -14 -4 0 -16 -7 -26 -16 -11 -9 -23 -18 -28 -20 -25 -11
-154 -103 -154 -110 0 -5 -4 -9 -9 -9 -18 0 -111 -67 -103 -75 4 -5 2 -5 -4
-2 -6 3 -20 -3 -32 -13 -12 -11 -26 -20 -32 -20 -5 0 -10 -4 -10 -10 0 -5 -7
-10 -15 -10 -9 0 -18 -7 -21 -15 -4 -8 -12 -15 -20 -15 -8 0 -14 -4 -14 -10 0
-5 -6 -10 -14 -10 -7 0 -25 -11 -39 -24 -14 -13 -28 -22 -30 -20 -2 2 -12 -5
-22 -16 -10 -11 -24 -20 -30 -20 -7 0 -27 -13 -45 -30 -18 -16 -36 -27 -41
-24 -5 3 -9 1 -9 -5 0 -5 -18 -20 -40 -32 -22 -13 -40 -26 -40 -31 0 -4 -7 -8
-15 -8 -9 0 -18 -7 -21 -15 -4 -8 -10 -12 -15 -9 -5 3 -12 -2 -15 -10 -3 -9
-11 -16 -18 -16 -6 0 -24 -11 -41 -24 l-30 -24 35 -30 c19 -17 37 -29 41 -26
4 2 10 -3 13 -12 4 -9 9 -14 12 -11 3 2 17 -6 31 -19 14 -13 28 -22 30 -20 3
2 13 -4 24 -15 11 -11 25 -17 32 -13 7 4 9 4 5 -1 -8 -8 33 -45 51 -45 6 0 11
-4 11 -10 0 -5 6 -10 13 -10 8 0 22 -9 32 -20 10 -11 23 -20 30 -20 7 0 20 -9
30 -20 10 -11 22 -20 27 -20 5 0 21 -11 35 -24 15 -14 30 -23 35 -20 4 3 8 1
8 -4 0 -4 18 -18 40 -31 22 -12 40 -25 40 -29 0 -4 16 -16 35 -26 19 -11 35
-23 35 -28 0 -5 5 -6 10 -3 6 3 10 1 10 -4 0 -6 7 -11 15 -11 8 0 15 -4 15 -9
0 -6 18 -20 40 -32 22 -13 40 -25 40 -29 0 -3 16 -14 35 -24 19 -11 35 -24 35
-29 0 -6 3 -8 6 -4 3 3 15 -3 27 -14 11 -10 27 -19 34 -19 7 0 13 -4 13 -8 0
-18 97 -40 182 -41 43 -1 46 -3 43 -26 -1 -14 1 -25 5 -25 7 0 8 -3 12 -55 2
-16 10 -35 18 -42 8 -6 12 -15 8 -18 -4 -4 -1 -17 7 -29 8 -11 15 -27 15 -35
0 -7 8 -20 17 -28 10 -8 12 -11 3 -7 -13 7 14 -32 55 -78 8 -10 13 -18 11 -18
-2 0 13 -17 33 -38 20 -21 38 -37 40 -36 2 2 12 -7 22 -19 10 -12 18 -19 19
-15 0 4 12 -4 26 -17 15 -14 33 -25 40 -25 8 0 14 -4 14 -9 0 -5 29 -19 65
-31 36 -12 65 -26 65 -30 0 -5 -10 -20 -22 -33 -13 -13 -30 -34 -38 -46 -8
-13 -19 -29 -25 -35 -5 -6 -11 -18 -13 -26 -2 -8 -8 -17 -13 -18 -5 -2 -7 -8
-3 -13 3 -5 0 -9 -5 -9 -6 0 -11 -8 -11 -18 0 -10 -8 -29 -17 -42 -10 -14 -16
-26 -15 -28 2 -1 -2 -28 -9 -60 -7 -31 -13 -70 -13 -87 -1 -16 -4 -35 -8 -41
-4 -6 -5 -14 -1 -18 4 -3 8 -34 10 -68 2 -34 8 -65 12 -68 5 -3 7 -12 6 -21
-3 -16 5 -36 52 -138 43 -95 139 -203 225 -254 32 -19 55 -37 52 -39 -2 -3 10
-9 28 -13 31 -7 37 -9 56 -15 4 -1 10 -2 15 -1 4 0 7 -3 7 -9 0 -5 11 -10 24
-10 14 0 27 -4 30 -8 3 -5 15 -8 28 -7 13 1 29 -2 35 -8 9 -6 13 -6 13 3 0 8
4 9 12 3 7 -5 27 -9 44 -8 31 2 32 1 22 -26 -5 -15 -16 -30 -24 -33 -7 -3 -11
-12 -8 -21 3 -8 1 -15 -6 -15 -6 0 -9 -4 -5 -9 3 -5 1 -12 -5 -16 -6 -4 -8
-11 -5 -16 4 -5 2 -9 -4 -9 -6 0 -8 -7 -5 -15 4 -8 1 -15 -5 -15 -6 0 -10 -3
-10 -7 1 -5 0 -10 -1 -13 -2 -5 -7 -35 -14 -95 -3 -16 -5 -32 -6 -35 -5 -13 4
-185 10 -185 2 0 10 -36 12 -57 1 -10 6 -18 10 -18 4 0 8 -7 8 -15 0 -19 41
-109 52 -113 4 -2 8 -9 8 -16 0 -7 9 -21 20 -31 11 -10 18 -20 15 -23 -6 -7
126 -131 147 -138 10 -3 18 -10 18 -15 0 -6 4 -7 10 -4 5 3 10 2 10 -3 0 -7
36 -30 60 -37 19 -6 48 -18 62 -25 9 -5 31 -12 49 -15 18 -3 37 -9 42 -12 15
-9 221 -12 232 -2 6 4 17 4 25 -1 11 -7 12 -10 2 -10 -7 0 -11 -4 -7 -9 3 -5
1 -12 -4 -15 -5 -4 -8 -17 -6 -31 1 -14 -1 -25 -5 -25 -9 0 -4 -204 5 -245 4
-16 13 -36 19 -44 9 -12 8 -13 -3 -7 -10 7 -10 3 2 -15 8 -13 17 -36 21 -51 4
-16 11 -28 17 -28 6 0 7 -5 4 -10 -3 -6 -2 -10 3 -10 5 0 9 -6 9 -13 0 -15 36
-69 70 -105 13 -12 23 -27 23 -33 0 -6 4 -8 8 -5 5 3 15 -6 22 -19 7 -14 19
-25 26 -25 6 0 15 -7 18 -16 3 -8 10 -12 16 -9 5 3 10 2 10 -2 0 -10 78 -59
87 -55 3 2 9 -1 12 -6 9 -14 151 -61 173 -57 10 2 18 1 18 -3 0 -4 31 -8 70
-9 47 -1 70 3 70 10 0 7 4 6 9 -2 8 -12 12 -12 24 -2 11 8 17 9 22 1 5 -8 11
-8 20 0 8 7 19 9 25 5 5 -3 10 -1 10 4 0 6 3 10 8 9 10 -2 94 22 107 31 6 4
22 12 36 18 21 9 26 8 26 -3 0 -8 -3 -14 -7 -14 -9 0 -6 -32 4 -48 4 -6 3 -12
-1 -12 -10 0 -10 -117 0 -127 4 -3 7 -16 7 -27 0 -42 71 -215 93 -224 4 -2 7
-10 7 -18 0 -8 5 -14 10 -14 6 0 10 -5 10 -11 0 -6 18 -29 40 -51 22 -23 40
-46 40 -51 0 -6 3 -7 6 -4 4 4 23 -7 43 -24 20 -16 41 -33 46 -37 12 -9 43
-22 51 -21 4 0 10 -3 13 -8 3 -5 29 -17 56 -27 28 -10 57 -20 65 -23 8 -3 33
-8 55 -10 22 -2 43 -10 47 -16 4 -7 8 -7 8 -2 0 6 34 11 78 12 42 1 86 3 97 6
11 2 39 7 63 12 23 4 42 12 42 17 0 5 4 7 8 4 7 -4 54 17 147 68 17 9 26 16
20 16 -12 0 16 20 28 20 5 0 5 -4 2 -10 -3 -5 -1 -10 5 -10 6 0 10 -6 9 -12
-3 -17 14 -63 51 -140 13 -27 27 -48 32 -48 5 0 7 -4 4 -9 -3 -5 6 -22 22 -39
15 -16 39 -42 53 -58 42 -46 130 -114 149 -114 5 0 10 -4 10 -10 0 -5 6 -10
13 -10 8 0 29 -8 48 -17 33 -17 48 -22 79 -27 9 -1 21 -5 28 -10 7 -4 34 -9
61 -10 26 -1 53 -6 59 -10 7 -4 12 -2 12 4 0 6 4 8 10 5 16 -10 50 -15 50 -7
0 4 12 7 28 8 45 1 95 11 127 25 17 7 37 13 45 13 8 0 21 6 28 13 8 7 17 11
22 8 4 -3 13 2 20 10 7 8 18 15 26 15 7 0 17 7 22 16 5 9 12 15 15 15 20 -3
28 0 22 8 -3 5 4 12 15 16 11 3 20 11 20 17 0 6 3 8 7 5 3 -4 16 7 28 23 12
16 24 28 27 25 3 -3 13 11 24 30 10 19 21 35 25 35 3 0 18 -27 33 -61 34 -77
80 -142 140 -197 16 -15 39 -36 51 -47 20 -19 31 -26 88 -57 12 -7 24 -16 27
-19 11 -12 173 -60 186 -55 8 3 14 1 14 -3 0 -5 45 -9 100 -9 55 0 100 3 100
7 0 3 10 6 23 7 78 3 230 73 307 141 41 35 76 73 90 93 8 13 25 33 37 45 12
13 19 26 15 29 -3 4 -2 10 4 14 16 10 54 93 48 103 -3 5 -2 9 2 9 9 0 84 -81
84 -91 0 -5 4 -9 10 -9 5 0 21 -11 35 -25 14 -14 25 -22 25 -18 0 4 5 0 11 -9
5 -10 15 -18 21 -18 6 0 17 -8 25 -17 8 -10 12 -12 8 -5 -3 7 10 1 31 -13 20
-14 45 -25 55 -25 10 0 20 -4 23 -9 7 -11 107 -33 154 -35 12 0 22 -3 22 -7 0
-4 14 -4 30 1 19 5 30 5 30 -1 0 -6 9 -7 22 -3 12 3 36 8 52 10 49 4 129 24
141 34 7 5 21 11 32 13 12 2 28 8 35 15 8 6 18 9 21 5 4 -3 7 0 7 7 0 7 3 11
6 7 6 -6 17 1 55 36 10 9 22 18 27 18 10 2 82 65 82 72 0 3 13 20 29 37 47 52
61 70 55 70 -3 0 8 24 24 53 16 28 28 54 28 57 -1 5 26 92 30 98 3 4 60 -35
82 -56 8 -7 18 -10 23 -7 5 4 9 2 9 -3 0 -5 8 -12 18 -15 9 -4 35 -13 57 -22
49 -19 70 -25 115 -31 19 -3 42 -8 50 -11 8 -3 19 -5 23 -4 5 1 43 4 85 6 68
4 112 9 120 15 1 2 5 3 10 4 29 5 122 42 122 49 0 4 4 6 9 3 4 -3 19 3 31 14
13 11 28 20 33 20 6 0 17 6 26 14 45 41 128 124 141 141 29 38 62 95 54 95 -4
0 3 8 14 19 12 10 19 21 15 24 -3 4 0 13 7 22 7 8 9 15 5 15 -4 0 -2 7 5 15 7
8 10 15 7 15 -3 0 1 19 8 43 7 23 11 50 9 60 -1 9 1 17 6 17 11 0 7 44 -5 52
-6 5 -6 8 1 8 12 0 12 58 0 78 -3 6 -1 14 5 18 8 4 7 9 -2 15 -10 6 -8 9 8 9
12 0 28 -7 37 -15 8 -9 18 -15 21 -14 3 1 16 -2 28 -6 12 -4 27 -9 32 -10 6
-1 17 -5 25 -8 8 -4 26 -8 40 -9 14 -2 30 -6 35 -9 10 -6 205 -4 215 1 3 2 10
4 15 5 6 2 12 4 15 5 3 1 16 3 29 6 13 2 38 11 55 18 17 8 50 22 74 32 23 10
42 21 42 26 0 4 5 8 10 8 13 0 17 3 93 70 31 27 55 50 52 50 -4 0 6 11 21 25
15 14 23 25 19 25 -5 0 1 10 12 23 30 33 69 123 91 207 16 59 19 97 15 180 -6
140 -7 150 -15 150 -5 0 -8 5 -8 11 0 11 110 7 129 -5 5 -4 13 -1 17 5 4 8 9
7 15 -2 5 -8 9 -9 9 -4 0 6 15 12 33 13 18 1 43 5 55 7 12 3 32 7 45 10 22 5
30 8 102 40 22 10 43 18 48 17 4 -1 7 3 7 9 0 5 5 7 10 4 6 -3 10 -1 10 4 0 6
6 11 13 11 7 0 19 9 27 20 8 11 20 20 27 20 7 0 13 7 13 15 0 8 4 14 8 13 10
-4 102 94 102 107 0 3 9 16 20 28 11 12 18 27 15 35 -2 7 -1 11 4 8 8 -5 33
43 36 69 0 6 4 16 8 23 5 6 5 12 0 12 -4 0 -3 4 4 8 10 6 19 39 28 102 1 14 4
27 5 30 2 5 0 118 -3 168 0 12 -3 22 -6 22 -4 0 -7 10 -8 23 -3 29 -7 46 -21
80 -7 15 -15 39 -18 52 -3 14 -10 25 -15 25 -5 0 -9 7 -9 15 0 8 -5 15 -11 15
-5 0 -8 4 -4 9 3 5 1 12 -5 16 -21 13 -8 20 38 22 42 1 107 9 107 13 0 2 34
10 55 14 8 1 30 10 48 19 17 10 32 15 32 12 0 -4 15 4 33 17 17 13 34 22 37
21 3 0 4 3 2 8 -1 6 6 9 15 7 11 -2 17 2 15 10 -1 8 2 11 7 8 5 -4 14 2 20 11
6 10 11 14 11 9 0 -11 110 101 110 113 0 4 9 16 20 26 11 10 20 24 20 32 0 7
4 13 9 13 9 0 26 48 23 63 -1 4 2 7 7 7 10 0 27 39 23 53 -1 4 2 16 8 27 9 17
15 46 24 115 2 17 5 35 6 40 1 6 1 12 0 15 -1 3 -4 30 -6 60 -4 50 -10 95 -14
95 -2 0 -10 36 -12 58 -1 9 -6 17 -11 17 -4 0 -6 4 -3 9 3 4 -1 17 -9 27 -8
10 -15 27 -15 37 0 9 -4 17 -8 17 -4 0 -14 16 -21 35 -7 19 -16 33 -21 30 -5
-3 -12 4 -15 16 -4 12 -20 35 -37 51 l-29 28 28 11 c15 6 30 11 33 11 3 0 23
10 45 21 22 12 43 20 48 19 4 -1 7 2 7 8 0 5 6 10 13 10 23 0 197 164 197 186
0 3 9 17 20 31 11 14 18 29 15 33 -3 4 2 11 11 14 9 4 14 13 10 21 -3 8 -1 15
5 15 6 0 7 5 4 10 -3 6 -1 10 4 10 6 0 10 3 10 8 -1 4 0 9 1 12 5 15 12 48 14
68 0 12 5 22 10 22 4 0 6 7 2 15 -3 8 -2 15 2 15 4 0 8 35 7 78 l0 77 618 5
619 5 -104 130 c-97 123 -243 325 -284 394 -18 30 -18 32 1 63 41 71 183 266
282 391 l105 132 -619 5 -618 5 3 23 c2 13 -2 22 -10 22 -10 0 -10 2 0 8 17
11 2 152 -19 178 -5 6 -6 14 -3 17 3 3 2 12 -2 19 -5 7 -9 15 -10 18 0 3 -7
19 -14 35 -7 17 -12 34 -12 38 1 4 -5 10 -13 13 -8 3 -13 10 -10 14 3 4 -2 13
-10 20 -8 7 -15 17 -15 22 0 5 -10 20 -22 33 -13 14 -32 35 -44 47 -33 36 -78
74 -97 81 -9 3 -17 10 -17 15 0 5 -13 15 -30 22 -16 7 -30 17 -30 22 0 5 -4 7
-9 3 -6 -3 -26 4 -46 15 -19 11 -45 20 -57 20 -18 0 -17 4 15 44 20 24 33 47
29 51 -4 5 -2 6 3 3 10 -6 35 15 35 29 0 18 12 43 21 43 6 0 7 5 4 10 -3 6 -1
10 4 10 6 0 11 9 11 20 0 11 4 20 9 20 5 0 8 8 6 18 -1 9 1 22 5 27 16 22 28
81 33 166 2 30 7 61 11 67 3 6 2 13 -3 17 -5 3 -10 13 -9 23 0 31 -18 118 -30
147 -5 11 -20 44 -32 73 -13 28 -27 52 -32 52 -4 0 -7 3 -6 8 3 15 -15 42 -25
35 -5 -3 -7 -1 -4 4 8 12 -103 133 -121 133 -7 0 -12 3 -12 8 0 9 -58 48 -66
44 -4 -2 -10 2 -15 10 -5 7 -12 13 -16 14 -10 1 -60 22 -95 41 -20 10 -28 11
-28 2 0 -9 -3 -9 -14 1 -15 12 -74 22 -133 23 -18 0 -34 6 -37 14 -3 7 -1 13
4 13 6 0 10 7 10 15 0 8 5 15 11 15 5 0 7 5 4 10 -3 6 -1 10 5 10 6 0 8 5 5
10 -3 6 -1 10 6 10 7 0 10 3 6 6 -3 4 0 19 8 34 8 15 11 30 8 34 -4 3 -2 6 4
6 5 0 10 6 11 13 3 34 9 64 16 76 4 7 6 15 3 17 -3 3 -1 18 3 34 6 20 5 30 -3
34 -8 3 -8 5 -1 5 10 1 10 23 -1 121 -2 19 -4 35 -5 35 -2 0 -10 37 -12 58 -1
9 -6 17 -10 17 -4 0 -8 11 -8 25 0 14 -4 25 -10 25 -5 0 -10 8 -10 19 0 10 -9
30 -21 45 -11 14 -18 26 -15 26 3 0 -6 12 -20 27 -13 14 -22 28 -20 30 5 5
-88 101 -94 98 -3 -2 -11 3 -18 11 -7 8 -9 14 -5 14 10 0 -56 39 -79 46 -10 4
-18 10 -18 14 0 4 -19 13 -42 20 -24 8 -48 17 -53 21 -6 4 -22 10 -35 13 -14
2 -44 9 -67 14 -23 5 -44 8 -47 5 -2 -3 -14 0 -25 7 -12 6 -21 7 -21 3 0 -4
-33 -9 -74 -10 -72 -1 -74 -1 -69 20 13 59 15 78 18 162 2 58 -1 93 -9 97 -8
6 -7 8 2 8 9 0 10 5 2 19 -5 11 -10 31 -10 45 0 14 -4 28 -10 31 -5 3 -10 13
-10 20 0 20 -49 126 -66 143 -8 7 -14 19 -14 27 0 7 -7 16 -16 19 -9 4 -14 9
-11 13 4 3 -9 18 -28 33 -19 15 -32 30 -28 34 3 3 2 6 -4 6 -6 0 -22 12 -37
26 -14 15 -26 23 -26 18 0 -5 -4 -4 -8 1 -10 15 -66 53 -83 57 -8 2 -16 6 -19
9 -10 12 -153 57 -172 54 -10 -2 -18 -1 -18 3 0 4 -34 8 -75 9 -50 1 -75 -3
-75 -11 0 -7 -3 -7 -8 -1 -8 11 -52 15 -52 5 0 -4 -6 -7 -12 -7 -24 -1 -68
-12 -80 -20 -7 -4 -20 -9 -29 -10 -8 -1 -29 -9 -45 -18 -39 -20 -61 -20 -44 0
10 12 10 15 0 15 -8 0 -9 4 -3 13 11 15 11 47 -1 66 -6 9 -5 12 1 8 6 -4 9 8
9 28 -1 19 -4 35 -7 35 -4 0 -5 10 -4 23 1 12 -4 37 -11 55 -10 24 -10 32 -1
32 8 0 8 3 2 8 -6 4 -24 38 -39 75 -16 38 -35 75 -42 82 -8 7 -14 17 -14 22 0
5 -9 16 -20 26 -11 9 -20 24 -20 34 0 9 -3 14 -6 10 -3 -3 -22 12 -42 34 -20
21 -43 39 -51 39 -8 0 -11 3 -8 7 7 6 -23 27 -55 39 -10 3 -18 11 -18 16 0 5
-4 7 -9 4 -5 -4 -11 -2 -13 3 -1 5 -10 11 -18 13 -8 2 -17 6 -20 10 -3 4 -15
9 -25 11 -11 2 -27 7 -35 10 -34 14 -127 34 -152 33 -16 -1 -28 3 -28 9 0 6
-3 7 -8 0 -4 -5 -40 -11 -80 -12 -43 -1 -80 -7 -90 -15 -13 -11 -15 -11 -7 2
7 12 6 13 -6 3 -8 -6 -26 -14 -41 -17 -36 -6 -158 -66 -158 -78 0 -5 -4 -6
-10 -3 -5 3 -10 1 -10 -5 0 -6 -4 -9 -9 -6 -5 3 -11 -1 -15 -9 -10 -27 -21
-16 -35 33 -26 88 -82 194 -133 247 -10 11 -31 34 -47 50 -29 31 -44 43 -95
73 -16 9 -37 25 -48 35 -10 9 -20 17 -23 16 -3 -1 -16 2 -28 6 -12 4 -25 7
-29 6 -5 -1 -8 3 -8 7 0 9 -99 33 -152 36 -19 1 -39 6 -46 10 -6 4 -21 2 -33
-5 -17 -9 -20 -8 -14 2 6 8 4 10 -4 5 -7 -5 -33 -10 -59 -12 -44 -3 -84 -10
-89 -14 -2 -2 -7 -4 -13 -5 -5 -1 -12 -4 -15 -5 -3 -1 -9 -4 -15 -5 -5 -1 -12
-4 -15 -5 -3 -1 -9 -3 -14 -4 -5 0 -13 -4 -17 -8 -4 -5 -15 -8 -24 -8 -10 0
-23 -7 -30 -15 -7 -9 -15 -13 -17 -11 -5 5 -15 -2 -48 -31 -7 -7 -17 -13 -22
-13 -5 0 -21 -14 -36 -31 -15 -17 -27 -28 -27 -24 0 4 -16 -12 -35 -35 -19
-23 -35 -46 -35 -51 0 -24 -19 -4 -40 44 -82 183 -229 311 -430 372 -70 22
-248 28 -312 11z m159 -166 c12 -14 18 -39 19 -80 1 -51 -3 -64 -23 -86 -24
-26 -25 -26 -42 -8 -10 11 -17 22 -15 26 3 4 0 9 -5 12 -5 4 -8 33 -7 65 5 83
36 114 73 71z m-1283 -161 c19 -32 26 -58 30 -104 4 -41 -3 -55 -32 -66 -20
-8 -28 -5 -43 12 -10 12 -23 36 -27 53 -11 39 -7 117 7 125 24 15 48 8 65 -20z
m2584 6 c22 -48 -1 -150 -39 -173 -19 -12 -57 -2 -60 16 -6 37 -4 82 3 82 5 0
6 5 3 10 -3 6 4 28 16 49 24 44 61 51 77 16z m-1614 -6 c20 -18 24 -32 17 -71
-2 -13 -42 -9 -56 6 -8 7 -17 25 -20 39 -13 49 17 62 59 26z m637 -6 c6 -15 5
-23 -3 -23 -6 0 -8 -3 -5 -7 4 -3 -8 -17 -26 -30 -30 -22 -33 -23 -44 -6 -17
23 -16 30 7 63 24 33 59 35 71 3z m-1245 -129 c-9 -38 -51 -70 -71 -54 -14 11
-14 58 0 80 4 6 17 15 29 20 30 12 50 -10 42 -46z m1854 36 c40 -40 16 -116
-29 -89 -21 14 -38 46 -35 67 1 6 2 19 3 27 2 21 37 19 61 -5z m-2486 -153
c32 -31 27 -90 -7 -83 -28 6 -47 19 -47 32 0 8 -3 14 -7 14 -5 0 -9 11 -9 25
-1 14 2 25 8 25 5 0 6 4 3 10 -8 14 42 -6 59 -23z m3127 13 c16 0 9 -36 -11
-58 -25 -26 -67 -39 -82 -24 -25 25 33 96 70 86 8 -2 18 -4 23 -4z m-4022
-159 c12 -12 21 -25 21 -31 0 -5 4 -10 8 -10 5 0 9 -6 10 -12 11 -92 9 -103
-18 -109 -19 -4 -60 22 -60 38 0 6 -7 19 -16 27 -18 19 -27 108 -11 118 16 10
44 1 66 -21z m4907 16 c29 -29 -16 -155 -63 -176 -31 -14 -52 9 -48 51 2 18 4
34 5 36 3 2 7 17 9 30 0 4 14 22 30 39 27 29 51 37 67 20z m-389 -64 c18 -28
20 -83 3 -93 -31 -19 -70 22 -70 73 0 47 42 59 67 20z m-4138 8 c11 -7 11 -15
1 -47 -16 -47 -39 -67 -58 -52 -16 14 -9 64 14 89 19 21 23 22 43 10z m4749
-345 c-2 -12 -17 -28 -36 -37 -57 -29 -115 9 -75 49 37 37 117 28 111 -12z
m-5321 20 c24 -8 36 -41 19 -54 -18 -13 -69 -8 -94 9 -22 16 -26 38 -9 50 10
7 53 5 84 -5z m5767 -325 c21 -17 21 -85 0 -105 -45 -46 -83 21 -53 95 11 29
27 31 53 10z m-6251 -22 c16 -25 -1 -87 -24 -94 -29 -9 -49 20 -38 57 4 15 5
28 1 28 -4 0 2 7 13 15 22 17 34 16 48 -6z m-397 -87 c41 -42 63 -104 45 -126
-22 -26 -77 -4 -111 44 -73 102 -19 169 66 82z m7077 30 c13 -14 16 -38 7 -62
-1 -3 -2 -8 -2 -11 1 -4 -8 -15 -18 -24 -11 -10 -20 -23 -20 -30 0 -17 -65
-45 -90 -38 -17 5 -21 11 -17 38 6 40 52 115 72 115 4 0 13 7 21 15 20 19 27
19 47 -3z m-7228 -402 c-3 -5 0 -7 9 -4 9 3 19 -3 26 -16 10 -18 9 -25 -3 -37
-19 -19 -80 -21 -101 -4 -17 14 -23 56 -7 47 5 -3 11 1 15 9 3 9 18 15 36 15
18 0 29 -4 25 -10z m7375 -35 c0 -34 -80 -55 -119 -31 -18 11 -13 44 9 56 11
6 20 8 20 5 0 -3 8 -2 17 4 21 11 73 -12 73 -34z m-7717 -335 c9 -33 -1 -90
-19 -107 -16 -16 -18 -16 -35 6 -14 17 -17 32 -13 64 4 23 10 47 15 53 13 17
46 6 52 -16z m8045 -39 c2 -33 -27 -81 -45 -74 -41 16 -45 102 -7 130 14 10
20 8 33 -10 10 -12 18 -33 19 -46z m-8383 -167 c17 -10 36 -24 43 -31 7 -7 16
-13 20 -13 12 0 31 -51 25 -65 -8 -22 -107 -4 -117 21 -3 8 -12 14 -20 14 -27
0 -56 85 -33 93 21 8 52 1 82 -19z m8736 9 c18 -18 -17 -77 -61 -102 -105 -59
-161 -10 -70 60 18 13 38 30 46 37 8 7 14 10 14 6 0 -5 5 -3 10 2 13 13 47 11
61 -3z m-8775 -407 c12 -50 -67 -94 -101 -56 -17 19 -8 35 35 64 35 23 59 20
66 -8z m8820 -5 c33 -32 27 -54 -14 -58 -49 -6 -103 52 -75 80 14 14 66 2 89
-22z m-9126 -451 c42 -23 34 -134 -9 -123 -35 9 -55 104 -26 125 13 10 13 10
35 -2z m9382 -5 c21 -28 -3 -110 -35 -121 -46 -15 -55 70 -14 124 11 14 38 12
49 -3z m-9654 -267 c17 -7 32 -16 32 -22 0 -5 3 -6 7 -3 3 4 19 -7 34 -24 37
-42 26 -66 -28 -63 -21 1 -39 3 -40 4 -2 1 -6 3 -10 4 -28 7 -59 21 -70 31 -7
7 -17 15 -21 17 -18 6 -23 46 -7 61 16 17 45 15 103 -5z m9992 7 c5 -3 8 -16
6 -28 -3 -12 -5 -25 -5 -28 -1 -3 -24 -18 -52 -33 -53 -30 -112 -40 -142 -24
-16 8 -16 11 -1 39 27 53 151 101 194 74z m-9934 -380 c0 -26 -43 -65 -73 -65
-39 0 -41 29 -4 62 37 33 76 35 77 3z m9828 14 c30 -14 62 -72 43 -78 -7 -2
-15 -9 -19 -15 -5 -7 -8 -7 -8 2 0 7 -4 10 -10 7 -5 -3 -25 8 -44 25 -28 26
-35 42 -27 68 2 6 43 1 65 -9z m-9992 -593 c36 -32 44 -106 11 -106 -35 0 -83
79 -69 115 8 21 27 18 58 -9z m10158 0 c0 -27 -24 -79 -45 -96 -22 -18 -55 -3
-51 23 3 12 5 24 6 27 2 3 2 8 1 13 0 4 4 7 9 7 6 0 9 4 8 9 -4 13 29 37 53
38 14 1 19 -5 19 -21z m-10362 -306 c4 -4 21 -7 41 -9 25 -1 33 -36 12 -54
-14 -13 -77 -15 -131 -4 -32 7 -60 29 -60 48 0 11 4 18 8 15 4 -2 13 -1 20 3
11 6 102 7 110 1z m10620 1 c1 -1 5 -1 9 0 4 0 10 -8 14 -18 11 -32 -31 -51
-126 -57 -51 -4 -72 2 -80 22 -8 20 13 40 49 46 16 3 30 7 32 9 3 3 92 1 102
-2z m-10459 -345 c17 -20 4 -57 -30 -84 -24 -19 -32 -21 -50 -11 -17 9 -19 13
-8 20 10 6 11 9 1 9 -10 0 -10 4 0 22 16 28 38 52 38 42 0 -5 5 -3 12 4 16 16
23 15 37 -2z m10235 -19 c31 -40 31 -41 10 -61 -20 -20 -44 -21 -44 -1 0 8 -4
15 -9 15 -15 0 -23 63 -9 72 20 12 25 10 52 -25z m-10267 -526 c12 -11 24 -17
29 -13 4 4 4 -1 1 -10 -4 -10 -3 -18 2 -18 19 0 19 -40 0 -50 -15 -8 -24 -6
-41 10 -12 11 -26 20 -32 20 -5 0 -6 3 -3 6 3 4 2 15 -4 26 -23 43 11 63 48
29z m10284 -17 c13 -25 12 -28 -21 -55 -31 -26 -36 -27 -50 -14 -20 21 -19 45
4 73 26 29 49 28 67 -4z m-10487 -336 c-6 -10 -5 -10 7 -1 20 16 100 5 124
-18 19 -19 19 -19 -2 -40 -27 -27 -145 -34 -181 -11 l-24 15 39 33 c42 37 48
40 37 22z m10659 -1 c28 -2 68 -43 61 -62 -4 -9 -9 -13 -12 -11 -3 3 -10 1
-17 -4 -16 -13 -115 -20 -115 -7 0 5 -6 7 -13 4 -16 -6 -50 18 -53 37 -5 32
51 57 106 48 14 -2 33 -4 43 -5z m-10349 -293 c12 -31 -21 -103 -49 -105 -8
-1 -21 -2 -27 -3 -7 -1 -13 13 -14 32 -1 17 3 32 7 32 5 0 9 5 9 11 0 16 36
46 54 46 8 0 17 -6 20 -13z m10084 -6 c25 -27 45 -76 38 -94 -7 -18 -48 -9
-60 13 -23 39 -33 78 -23 91 13 17 20 15 45 -10z m-9972 -616 c31 -29 34 -38
18 -64 -7 -13 -16 -16 -34 -10 -37 10 -71 37 -74 58 -8 47 46 56 90 16z m9894
-8 c0 -7 -5 -16 -10 -19 -6 -4 -7 -11 -4 -17 4 -6 2 -8 -3 -5 -6 4 -20 -2 -32
-12 -30 -26 -61 -17 -61 18 1 36 55 72 88 58 12 -6 22 -16 22 -23z m-9843
-307 c23 -15 -13 -65 -66 -92 -87 -44 -141 -40 -136 9 4 32 13 46 29 46 8 0
19 7 26 15 7 9 15 14 17 11 2 -2 15 1 28 8 26 14 83 15 102 3z m9811 1 c6 -1
12 -5 12 -10 0 -4 3 -7 8 -6 12 2 45 -15 64 -34 16 -16 20 -50 6 -63 -12 -12
-50 -14 -76 -3 -28 12 -36 15 -49 17 -14 2 -60 46 -71 67 -20 37 10 46 106 32z
m-9607 -255 c11 -65 -4 -116 -37 -132 -20 -9 -24 -7 -30 12 -12 35 -13 47 -3
47 4 0 6 7 3 15 -9 21 23 65 46 65 11 0 21 -3 21 -7z m9349 -8 c7 -9 14 -37
16 -64 4 -52 -11 -70 -44 -52 -15 9 -18 16 -27 76 -7 47 28 73 55 40z m-9120
-510 c11 -2 27 -11 36 -19 8 -9 19 -16 24 -16 10 0 8 -19 -3 -37 -20 -32 -123
4 -122 42 0 15 29 44 37 38 5 -2 17 -6 28 -8z m8884 -1 c9 -3 16 -12 16 -19 0
-32 -96 -77 -112 -52 -14 23 -8 42 20 59 29 19 50 22 76 12z m-8697 -347 c9
-9 -20 -64 -45 -85 -49 -41 -115 -61 -130 -38 -11 18 -12 46 -2 46 6 0 10 6
10 13 0 11 38 41 85 65 17 9 72 8 82 -1z m8581 -18 c23 -13 46 -33 52 -44 16
-31 20 -63 7 -68 -23 -8 -71 2 -79 18 -5 8 -13 13 -18 10 -4 -3 -10 2 -14 10
-3 8 -12 15 -21 15 -8 0 -15 4 -15 9 0 5 -6 16 -14 24 -8 8 -12 24 -9 35 7 27
54 23 111 -9z m-8338 -214 c0 -8 4 -15 8 -15 14 0 0 -68 -17 -84 -16 -15 -19
-14 -36 4 -22 24 -25 91 -6 114 15 18 51 5 51 -19z m8028 22 c14 -16 8 -103
-9 -123 -10 -13 -14 -13 -26 -1 -24 24 -26 136 -2 122 5 -4 9 -1 9 4 0 15 15
14 28 -2z m-7649 -411 c17 -11 13 -44 -6 -55 -43 -23 -113 -8 -113 23 0 33 82
55 119 32z m7329 -9 c42 -33 -30 -75 -87 -51 -32 13 -36 21 -25 49 5 12 18 15
53 14 25 -1 52 -6 59 -12z m-7169 -297 c4 0 8 -16 8 -35 0 -19 -4 -35 -9 -35
-4 0 -8 -6 -8 -12 -1 -17 -38 -59 -73 -81 -27 -18 -30 -18 -48 -1 -10 9 -19
22 -19 28 0 22 54 116 67 116 7 0 13 4 13 9 0 11 30 20 48 15 8 -2 17 -4 21
-4z m6984 -19 c18 -11 31 -23 29 -26 -1 -3 5 -17 14 -31 23 -35 24 -76 2 -92
-15 -11 -22 -10 -45 5 -25 16 -36 26 -72 69 -5 7 -7 15 -4 18 4 3 2 6 -4 6
-14 0 -15 63 -1 71 16 10 45 3 81 -20z m-6637 -100 c-4 -5 -2 -11 4 -13 17 -5
18 -71 2 -90 -26 -31 -47 -20 -58 32 -7 28 7 61 29 70 29 12 29 12 23 1z
m6243 -5 c19 -23 19 -72 0 -97 -16 -22 -20 -23 -34 -8 -22 21 -26 73 -9 98 18
24 27 26 43 7z m-443 -397 c21 -18 17 -49 -8 -58 -39 -14 -108 17 -108 48 0
36 77 43 116 10z m-5287 6 c13 -15 -5 -55 -26 -56 -10 -1 -30 -3 -44 -4 -14
-2 -31 0 -39 5 -12 7 -12 13 -1 34 8 14 21 27 30 29 29 6 70 2 80 -8z m206
-262 c14 -31 14 -47 5 -84 -12 -44 -62 -99 -87 -94 -10 2 -21 4 -25 4 -4 1 -6
20 -4 44 5 66 55 142 97 146 4 1 10 -7 14 -16z m4863 -58 c32 -62 22 -128 -18
-120 -54 10 -93 95 -81 177 1 3 9 8 19 11 21 4 58 -27 80 -68z m-4528 33 c14
-16 20 -34 18 -60 -2 -32 -5 -38 -25 -38 -29 0 -53 37 -50 75 3 48 25 57 57
23z m4144 16 c34 -13 11 -119 -26 -119 -40 -1 -49 61 -14 103 22 25 19 24 40
16z m-505 -258 c11 -21 12 -28 1 -41 -18 -21 -35 -19 -65 10 -26 27 -34 70
-12 78 19 7 61 -19 76 -47z m-3092 28 c15 -40 -42 -92 -79 -73 -16 9 -21 49
-6 49 4 0 8 6 8 14 0 27 67 36 77 10z m582 -124 c10 0 27 -41 26 -60 -1 -8 -3
-23 -3 -32 -2 -22 -38 -24 -58 -4 -35 35 -24 116 13 101 8 -3 18 -5 22 -5z
m1897 -15 c8 -14 8 -24 0 -34 -9 -12 -8 -13 3 -7 9 6 8 1 -3 -17 -18 -27 -59
-40 -75 -24 -14 14 -14 37 -1 37 5 0 7 6 4 13 -6 15 32 58 49 54 6 -1 16 -11
23 -22z m-2209 -22 c23 -29 -3 -141 -40 -172 -14 -11 -20 -11 -41 2 -20 14
-23 22 -21 70 5 102 58 155 102 100z m2552 -22 c20 -40 22 -124 3 -143 -25
-25 -48 -18 -71 22 -12 22 -20 44 -16 49 3 5 2 12 -3 15 -7 4 -9 47 -3 79 2
11 44 25 59 19 7 -2 21 -21 31 -41z m-1592 -64 c9 -6 8 -16 -4 -42 -19 -40
-41 -51 -61 -32 -11 12 -12 19 -2 38 25 45 40 53 67 36z m593 -8 c25 -23 30
-45 16 -64 -11 -15 -15 -16 -34 -4 -27 17 -44 63 -30 77 14 14 27 11 48 -9z
m-274 -140 c1 -34 -3 -59 -9 -59 -6 0 -7 -3 -4 -7 7 -6 -21 -32 -35 -33 -4 0
-16 9 -26 20 -20 22 -23 81 -7 147 18 78 79 27 81 -68z"/>
</g>
</svg>
